<svg id="Layer_1" data-name="Layer 1" xmlns="http://www.w3.org/2000/svg" width="125.5" height="33.08" viewBox="0 0 125.5 33.08">
  <title>icon-email-coffee</title>
  <g>
    <g>
      <path d="M16.08,22.73a1.17,1.17,0,0,1-1.66,0L.53,9C0,8.78,0,10.11,0,10.78v16.8A3.52,3.52,0,0,0,3.52,31.1H27a3.53,3.53,0,0,0,3.52-3.52V10.78c0-.67-.19-2.08-.53-1.83C29.16,9.56,19.06,19.72,16.08,22.73Z" style="fill: #2b4e79"/>
      <path d="M2.31,8.57l12,11.85a1.18,1.18,0,0,0,1.65,0L27.93,8.57Z" style="fill: #2b4e79"/>
    </g>
    <g>
      <path d="M38.76,18.89l2.49,1.19a37.55,37.55,0,0,0,30.58,1.18l4-1.57" style="fill: none;stroke: #bc8f8f;stroke-linecap: round;stroke-miterlimit: 10;stroke-width: 2px"/>
      <polygon points="72.6 29.7 70.8 28.82 75.12 19.95 65.95 16.3 66.7 14.44 77.85 18.89 72.6 29.7" style="fill: #bc8f8f"/>
    </g>
    <path d="M125,6.17a7,7,0,0,0-4.27-3.29A6.24,6.24,0,0,0,119,2.62a8.66,8.66,0,0,0-6,2.23l-.35-1.73a2.3,2.3,0,0,0,0-.37C112.12.19,106.1-.75,99.19.65S87.13,5.24,87.61,7.79h0L92.1,30a1.83,1.83,0,0,0,0,.33,1.63,1.63,0,0,0,.11.31l0,.16h0c1.12,2.21,6.82,3,13.29,1.64s11.42-4.21,11.6-6.67l.07,0-.55-2.7a3,3,0,0,0,1.19-2.9c0-.67.68-1.35,1.78-2.31.28-.24.56-.47.81-.71a18.41,18.41,0,0,0,4.22-5.36A6.42,6.42,0,0,0,125,6.17ZM99.34,1.42c6.86-1.39,12-.32,12.42,1.51.13.63-.32,1.41-1.24,2.21a24.29,24.29,0,0,1-9.68,3.93,25.93,25.93,0,0,1-9.52.35c-1.65-.37-2.68-1-2.83-1.78C88.12,5.81,92.48,2.81,99.34,1.42Zm22,9.19a15.07,15.07,0,0,1-3.44,4.29l-.69.61a15.54,15.54,0,0,0-1.68,1.6L113.91,9.3c.29-.4.6-.84.92-1.33a4.57,4.57,0,0,1,3.89-2,2.25,2.25,0,0,1,.59.07,3.86,3.86,0,0,1,2.28,1.63A3.7,3.7,0,0,1,121.3,10.61Z" style="fill: #2b4e79"/>
  </g>
</svg>
