<svg id="Layer_1" data-name="Layer 1" xmlns="http://www.w3.org/2000/svg" viewBox="0 0 109.67 109.67"><defs><style>.cls-1{fill:#d58256;}</style></defs><title>email</title><path class="cls-1" d="M93.54,31.4h0L63.15,61.79a11.77,11.77,0,0,1-16.63,0L16.13,31.4c-.26-.26-.5-.53-.74-.81a5.61,5.61,0,0,0-.06.59V78.49a4.85,4.85,0,0,0,4.85,4.84H89.49a4.84,4.84,0,0,0,4.84-4.84V31.18a5.63,5.63,0,0,0,0-.59C94,30.87,93.8,31.14,93.54,31.4Z"/><path class="cls-1" d="M50.76,57.55a5.76,5.76,0,0,0,8.15,0L89.3,27.16a5.89,5.89,0,0,0,.64-.78c-.15,0-.29-.05-.45-.05H20.18c-.15,0-.3,0-.45.05a6.62,6.62,0,0,0,.64.78Z"/></svg>
