<?xml version="1.0" encoding="utf-8"?>
<!-- Generator: Adobe Illustrator 22.1.0, SVG Export Plug-In . SVG Version: 6.00 Build 0)  -->
<svg version="1.1" id="Layer_1" xmlns="http://www.w3.org/2000/svg" xmlns:xlink="http://www.w3.org/1999/xlink" x="0px" y="0px"
	 viewBox="0 0 109.7 109.7" style="enable-background:new 0 0 109.7 109.7;" xml:space="preserve">
<style type="text/css">
	.st0{fill:#FFFFFF;}
	.st1{fill:#D58256;}
</style>
<circle class="st0" cx="54.8" cy="54.8" r="54.5"/>
<title>socialMediaIcons</title>
<path class="st1" d="M66.5,80.9c0.4-0.1,1.7-0.4,3-0.7C86.3,76.1,94,57.1,85.2,41.7c-1-1.7-1.1-4-1.4-6.1c-0.2-1.5,0.2-3.1,0.1-4.6
	c-0.4-7.3-2.4-9-8.7-5.5c-5.6,3.1-11,4.1-17,2.5c-1.3-0.3-2.7-0.4-4-0.1c-8,1.1-15.8,1.7-23.3-3.2c-3.7-2.4-6.3,0.1-6.1,4.2
	c0.4,6.8-1.9,12.7-3.9,19c-4.8,15.4,3.5,29,18.8,32.7c1.1,0.3,2.2,0.6,3.5,1c-1.8,3.4-1.7,7.7-6.6,8.1S28.5,88,25.9,84
	c-2.4-3.6-5.2-6.6-10.5-5.5c3.2,4.9,6,9.8,9.4,14.1c3.9,5,9.7,4.5,15.4,4.2c0.3,0.8,0.4,1.7,0.5,2.5c0.5,10.3-2.4,12.3-11.3,7.2
	c-19.7-11.4-30-29-29.1-52.2C1.4,30.9,13.1,14,34.1,4.7C60.7-7,91.4,5.5,104,32.5c12.4,26.7,2.7,58.7-22.3,73.3
	c-1.4,0.8-3,1.6-4.5,2.2c-6.9,2.8-9.2,1.1-9.4-6.3C67.5,95,67,88.3,66.5,80.9z"/>
</svg>
