<svg id="Layer_1" data-name="Layer 1" xmlns="http://www.w3.org/2000/svg" viewBox="0 0 109.67 109.67"><defs><style>.cls-1{fill:#d58256;}.cls-2{fill:#fff;}</style></defs><title>socialMediaIcons</title><path class="cls-1" d="M54.75.34A54.77,54.77,0,0,1,109.34,55,54.5,54.5,0,1,1,54.75.34ZM91,88.83c0-9.26,0-18,0-26.72a51,51,0,0,0-.46-7.92c-1.72-10.42-9.89-16.84-19.75-14.82-4.41.9-8.44,3.59-12.57,5.44l-.87-4.75c-2.86,0-5.65.19-8.4,0-3.66-.32-4.87.93-4.77,4.74.35,12.9.31,25.8.44,38.7,0,1.75.15,3.49.23,5.22H60.08c0-8.72,0-17.12,0-25.52a20.38,20.38,0,0,1,.72-5.84c1.19-3.71,3.84-5.6,7.87-5.44s5.93,2.79,6.51,6.28a56,56,0,0,1,.38,8.9c0,7.21,0,14.42,0,21.77ZM20.55,88.6h15.2V40.07c-4,0-7.76.11-11.51,0-2.83-.11-3.75,1.09-3.72,3.81.11,7.78,0,15.55,0,23.33Zm7.33-54.08c4.72.12,8.22-2.89,8.4-7.24a7.74,7.74,0,0,0-8-8.19A7.91,7.91,0,0,0,20,26.63,7.83,7.83,0,0,0,27.88,34.52Z"/><path class="cls-2" d="M91,88.83H75.6c0-7.35,0-14.56,0-21.77a56,56,0,0,0-.38-8.9c-.58-3.49-2.42-6.12-6.51-6.28S62,53.61,60.83,57.32a20.38,20.38,0,0,0-.72,5.84c-.07,8.4,0,16.8,0,25.52H44.85c-.08-1.73-.21-3.47-.23-5.22-.13-12.9-.09-25.8-.44-38.7C44.08,41,45.29,39.7,49,40c2.75.23,5.54,0,8.4,0l.87,4.75c4.13-1.85,8.16-4.54,12.57-5.44,9.86-2,18,4.4,19.75,14.82A51,51,0,0,1,91,62.11C91.05,70.84,91,79.57,91,88.83Z"/><path class="cls-2" d="M20.55,88.6V67.18c0-7.78.08-15.55,0-23.33,0-2.72.89-3.92,3.72-3.81,3.75.14,7.51,0,11.51,0V88.6Z"/><path class="cls-2" d="M27.88,34.52A7.83,7.83,0,0,1,20,26.63a7.91,7.91,0,0,1,8.24-7.54,7.74,7.74,0,0,1,8,8.19C36.1,31.63,32.6,34.64,27.88,34.52Z"/><path class="cls-1" d="M54.75.34A54.77,54.77,0,0,1,109.34,55,54.5,54.5,0,1,1,54.75.34ZM91,88.83c0-9.26,0-18,0-26.72a51,51,0,0,0-.46-7.92c-1.72-10.42-9.89-16.84-19.75-14.82-4.41.9-8.44,3.59-12.57,5.44l-.87-4.75c-2.86,0-5.65.19-8.4,0-3.66-.32-4.87.93-4.77,4.74.35,12.9.31,25.8.44,38.7,0,1.75.15,3.49.23,5.22H60.08c0-8.72,0-17.12,0-25.52a20.38,20.38,0,0,1,.72-5.84c1.19-3.71,3.84-5.6,7.87-5.44s5.93,2.79,6.51,6.28a56,56,0,0,1,.38,8.9c0,7.21,0,14.42,0,21.77ZM20.55,88.6h15.2V40.07c-4,0-7.76.11-11.51,0-2.83-.11-3.75,1.09-3.72,3.81.11,7.78,0,15.55,0,23.33Zm7.33-54.08c4.72.12,8.22-2.89,8.4-7.24a7.74,7.74,0,0,0-8-8.19A7.91,7.91,0,0,0,20,26.63,7.83,7.83,0,0,0,27.88,34.52Z"/><path class="cls-2" d="M91,88.83H75.6c0-7.35,0-14.56,0-21.77a56,56,0,0,0-.38-8.9c-.58-3.49-2.42-6.12-6.51-6.28S62,53.61,60.83,57.32a20.38,20.38,0,0,0-.72,5.84c-.07,8.4,0,16.8,0,25.52H44.85c-.08-1.73-.21-3.47-.23-5.22-.13-12.9-.09-25.8-.44-38.7C44.08,41,45.29,39.7,49,40c2.75.23,5.54,0,8.4,0l.87,4.75c4.13-1.85,8.16-4.54,12.57-5.44,9.86-2,18,4.4,19.75,14.82A51,51,0,0,1,91,62.11C91.05,70.84,91,79.57,91,88.83Z"/><path class="cls-2" d="M20.55,88.6V67.18c0-7.78.08-15.55,0-23.33,0-2.72.89-3.92,3.72-3.81,3.75.14,7.51,0,11.51,0V88.6Z"/><path class="cls-2" d="M27.88,34.52A7.83,7.83,0,0,1,20,26.63a7.91,7.91,0,0,1,8.24-7.54,7.74,7.74,0,0,1,8,8.19C36.1,31.63,32.6,34.64,27.88,34.52Z"/></svg>
