<svg id="Layer_1" data-name="Layer 1" xmlns="http://www.w3.org/2000/svg" viewBox="0 0 109.67 109.67"><defs><style>.cls-1{fill:#fff;}.cls-2{fill:#d58256;}</style></defs><title>socialMediaIcons</title><circle class="cls-1" cx="60.42" cy="55.42" r="32.74"/><circle class="cls-2" cx="54.84" cy="54.84" r="54.5"/><path class="cls-1" d="M58.59,19.51V34.67H74.32c0,4.09.06,7.93-.1,11.76,0,.39-1.35,1-2.08,1-4.37.1-8.75,0-13.32,0-.07.89-.18,1.62-.18,2.34,0,6.24-.06,12.49,0,18.73.09,5.27,3.3,7.81,8.47,6.77,2.45-.49,4.86-1.24,7.66-2,0,4.7.06,9.14-.07,13.58,0,.55-.9,1.37-1.54,1.56a34.34,34.34,0,0,1-20.15.31c-7.15-2.17-11.17-7.63-11.22-15.29s0-15.52-.05-23.28c0-.82-.07-1.64-.12-2.7H34.84V35.07C42.82,33.93,46.79,29,48,21.34a2.69,2.69,0,0,1,1.81-1.75C52.6,19.39,55.39,19.51,58.59,19.51Z"/></svg>
